# xmcd CD database file
#
# Track frame offsets:
#	150
#	19737
#	39141
#	55376
#	71193
#	87911
#	106735
#	122051
#	140982
#	160277
#	181849
#	197579
#	212474
#	233902
#	248459
#
# Disc length: 3463 seconds
#
# Revision: 0
# Processed by: cddbd v1.5.2PL0 Copyright (c) Steve Scherf et al.
# Submitted via: CDex 1.51
#
DISCID=c80d850f
DTITLE=Lechtown Kneeoilers - Dixieland
DYEAR=2001
DGENRE=Jazz
TTITLE0=Hiawatha Rag
TTITLE1=Bugle Boy March
TTITLE2=Savoy Blues
TTITLE3=Doctor Jazz
TTITLE4=Shoutém Aunt Tilly
TTITLE5=I´m gonna sit right now
TTITLE6=Big House Blues
TTITLE7=Dinah
TTITLE8=I´ve found a new baby
TTITLE9=Blue turning gray over you
TTITLE10=Sweet Sue
TTITLE11=You do something to me
TTITLE12=Black an Blue
TTITLE13=Nobody´s Sweetheart
TTITLE14=Tiroler holzhacker Bua´m
EXTD=YEAR: 2001
EXTT0=
EXTT1=
EXTT2=
EXTT3=
EXTT4=
EXTT5=
EXTT6=
EXTT7=
EXTT8=
EXTT9=
EXTT10=
EXTT11=
EXTT12=
EXTT13=
EXTT14=
PLAYORDER=
